# xmcd
#
# Track frame offsets:
#	150
#	13448
#	31291
#	41932
#	58515
#	68615
#	79419
#	91580
#	103513
#	115040
#
# Disc length: 1716 seconds
# Revision: 0
# Processed by: cddbd v1.5.2PL0 Copyright (c) Steve Scherf et al.
# Submitted via: dBpowerAMP V12.0
#
DISCID=7b06b20a
DTITLE=Alina Tatum - You're Lookin' At Country
DYEAR=2005
DGENRE=Country
TTITLE0=Let Me Tell You About Love
TTITLE1=Don't Worry
TTITLE2=You're Lookin' At Country
TTITLE3=Always On MY Mind
TTITLE4=Hey Goodlookin'
TTITLE5=Leavin' On your Mind
TTITLE6=Joleen
TTITLE7=En Of The World
TTITLE8=Singing The Blues
TTITLE9=I Will Always Love You
EXTD=
EXTT0=
EXTT1=
EXTT2=
EXTT3=
EXTT4=
EXTT5=
EXTT6=
EXTT7=
EXTT8=
EXTT9=
PLAYORDER=
